<svg id="visual" viewBox="0 0 900 600" width="900" height="600" xmlns="http://www.w3.org/2000/svg" xmlns:xlink="http://www.w3.org/1999/xlink" version="1.1"><rect x="0" y="0" width="900" height="600" fill="#001220"></rect><path d="M0 406L21.5 401.8C43 397.7 86 389.3 128.8 394.3C171.7 399.3 214.3 417.7 257.2 421.7C300 425.7 343 415.3 385.8 413.3C428.7 411.3 471.3 417.7 514.2 417.8C557 418 600 412 642.8 415.2C685.7 418.3 728.3 430.7 771.2 428C814 425.3 857 407.7 878.5 398.8L900 390L900 601L878.5 601C857 601 814 601 771.2 601C728.3 601 685.7 601 642.8 601C600 601 557 601 514.2 601C471.3 601 428.7 601 385.8 601C343 601 300 601 257.2 601C214.3 601 171.7 601 128.8 601C86 601 43 601 21.5 601L0 601Z" fill="#69f1fa"></path><path d="M0 461L21.5 451.5C43 442 86 423 128.8 419C171.7 415 214.3 426 257.2 438.5C300 451 343 465 385.8 466.8C428.7 468.7 471.3 458.3 514.2 452.5C557 446.7 600 445.3 642.8 436.8C685.7 428.3 728.3 412.7 771.2 415.8C814 419 857 441 878.5 452L900 463L900 601L878.5 601C857 601 814 601 771.2 601C728.3 601 685.7 601 642.8 601C600 601 557 601 514.2 601C471.3 601 428.7 601 385.8 601C343 601 300 601 257.2 601C214.3 601 171.7 601 128.8 601C86 601 43 601 21.5 601L0 601Z" fill="#00ccff"></path><path d="M0 463L21.5 463.2C43 463.3 86 463.7 128.8 465.2C171.7 466.7 214.3 469.3 257.2 471.5C300 473.7 343 475.3 385.8 473.3C428.7 471.3 471.3 465.7 514.2 465.3C557 465 600 470 642.8 477.3C685.7 484.7 728.3 494.3 771.2 494C814 493.7 857 483.3 878.5 478.2L900 473L900 601L878.5 601C857 601 814 601 771.2 601C728.3 601 685.7 601 642.8 601C600 601 557 601 514.2 601C471.3 601 428.7 601 385.8 601C343 601 300 601 257.2 601C214.3 601 171.7 601 128.8 601C86 601 43 601 21.5 601L0 601Z" fill="#00a0ff"></path><path d="M0 506L21.5 503C43 500 86 494 128.8 490.5C171.7 487 214.3 486 257.2 491.2C300 496.3 343 507.7 385.8 517.2C428.7 526.7 471.3 534.3 514.2 533.7C557 533 600 524 642.8 519.8C685.7 515.7 728.3 516.3 771.2 514.3C814 512.3 857 507.7 878.5 505.3L900 503L900 601L878.5 601C857 601 814 601 771.2 601C728.3 601 685.7 601 642.8 601C600 601 557 601 514.2 601C471.3 601 428.7 601 385.8 601C343 601 300 601 257.2 601C214.3 601 171.7 601 128.8 601C86 601 43 601 21.5 601L0 601Z" fill="#006cee"></path><path d="M0 551L21.5 553C43 555 86 559 128.8 558.3C171.7 557.7 214.3 552.3 257.2 546.5C300 540.7 343 534.3 385.8 532.7C428.7 531 471.3 534 514.2 540C557 546 600 555 642.8 553.7C685.7 552.3 728.3 540.7 771.2 534.2C814 527.7 857 526.3 878.5 525.7L900 525L900 601L878.5 601C857 601 814 601 771.2 601C728.3 601 685.7 601 642.8 601C600 601 557 601 514.2 601C471.3 601 428.7 601 385.8 601C343 601 300 601 257.2 601C214.3 601 171.7 601 128.8 601C86 601 43 601 21.5 601L0 601Z" fill="#5524c7"></path></svg>